# xmcd
#
# Track frame offsets: 
#        150
#        26770
#        49268
#        67616
#
# Disc length: 1252 seconds
#
# Revision: 6
# Processed by: cddbd v1.5.2PL0 Copyright (c) Steve Scherf et al.
# Submitted via: ExactAudioCopy v1.0b3
#
DISCID=2b04e204
DTITLE=いきものがかり - SAKURA
DYEAR=2006
DGENRE=JPop
TTITLE0=SAKURA
TTITLE1=ホットミルク
TTITLE2=卒業写真
TTITLE3=SAKURA -Instrumental-
EXTD=YEAR: 2006/03/15
EXTT0=
EXTT1=
EXTT2=
EXTT3=
PLAYORDER=
